<mxfile host="app.diagrams.net" modified="2025-09-10T00:00:00Z" agent="CFB" version="22.1.0">
  <diagram id="er-ops" name="Ops Deploy ER">
    <mxGraphModel dx="1600" dy="900" grid="1" gridSize="10" guides="1" tooltips="1" connect="1" arrows="1" fold="1" page="1" pageScale="1" pageWidth="1920" pageHeight="1080" math="0" shadow="0">
      <root>
        <mxCell id="0"/>
        <mxCell id="1" parent="0"/>
        <mxCell id="tbl-deployments" value="deployments" style="shape=table;container=1;childLayout=tableLayout;strokeColor=#f59e0b;fillColor=#fffbeb;rounded=1;" vertex="1" parent="1">
          <mxGeometry x="240" y="240" width="380" height="152" as="geometry"/>
        </mxCell>
        <mxCell id="dep-id" value="id,PK" style="shape=tableRow;" vertex="1" parent="tbl-deployments"><mxGeometry x="0" y="28" width="380" height="24" as="geometry"/></mxCell>
        <mxCell id="dep-env" value="env,enum" style="shape=tableRow;" vertex="1" parent="tbl-deployments"><mxGeometry x="0" y="52" width="380" height="24" as="geometry"/></mxCell>
        <mxCell id="tbl-logs" value="logs" style="shape=table;container=1;childLayout=tableLayout;strokeColor=#fb923c;fillColor=#ffedd5;rounded=1;" vertex="1" parent="1">
          <mxGeometry x="660" y="260" width="380" height="128" as="geometry"/>
        </mxCell>
        <mxCell id="logs-id" value="id,PK" style="shape=tableRow;" vertex="1" parent="tbl-logs"><mxGeometry x="0" y="28" width="380" height="24" as="geometry"/></mxCell>
        <mxCell id="logs-deploy" value="deploymentId,FKey" style="shape=tableRow;" vertex="1" parent="tbl-logs"><mxGeometry x="0" y="52" width="380" height="24" as="geometry"/></mxCell>
        <mxCell id="edge-deploy-logs" edge="1" parent="1" source="tbl-deployments" target="tbl-logs" style="endArrow=classic;strokeColor=#334155;endSize=8;">
          <mxGeometry relative="1" as="geometry"/>
        </mxCell>
      </root>
    </mxGraphModel>
  </diagram>
</mxfile>
